<svg width="150" height="36" viewBox="0 0 150 36" fill="none" xmlns="http://www.w3.org/2000/svg">
<path d="M3.48135 27.9232C1.00918 27.465 -0.513073 24.9564 0.221996 22.552L6.67063 1.45847C6.92303 0.632847 7.75483 0.128094 8.60371 0.285425C9.45259 0.442756 10.0482 1.21207 9.98801 2.07331L8.44907 24.0768C8.27365 26.585 5.95352 28.3814 3.48135 27.9232Z" fill="#FF1A9F"/>
<path d="M2.01928 27.3554C-0.11294 26.023 -0.609883 23.1311 0.955261 21.1634L14.686 3.90104C15.2234 3.22537 16.1823 3.06059 16.9145 3.51809C17.6466 3.97559 17.9189 4.90969 17.5472 5.68892L8.05104 25.5973C6.96858 27.8667 4.1515 28.6878 2.01928 27.3554Z" fill="#D700CC"/>
<path d="M0.867154 26.2913C-0.628391 24.2702 -0.0308664 21.3973 2.14654 20.1402L21.2485 9.11129C21.9962 8.67961 22.9488 8.87774 23.4623 9.57174C23.9759 10.2657 23.8868 11.2346 23.2554 11.8234L7.12353 26.8662C5.28469 28.5809 2.3627 28.3124 0.867154 26.2913Z" fill="#AD1BFC"/>
<path d="M0.185353 24.8791C-0.465388 22.4505 1.14345 19.9966 3.6301 19.6249L25.445 16.3643C26.2989 16.2367 27.1126 16.7702 27.336 17.6041C27.5595 18.438 27.1215 19.3068 26.3183 19.6232L5.79569 27.707C3.45635 28.6284 0.836094 27.3077 0.185353 24.8791Z" fill="#8115FD"/>
<path d="M0.0684948 23.3152C0.353118 20.8171 2.74938 19.1235 5.19921 19.6891L26.6912 24.6506C27.5324 24.8448 28.094 25.6394 27.9962 26.4971C27.8985 27.3549 27.1726 28.0028 26.3093 28.0028L4.25202 28.0025C1.73775 28.0025 -0.216129 25.8133 0.0684948 23.3152Z" fill="#6200FF"/>
<path fill-rule="evenodd" clip-rule="evenodd" d="M56.3145 10.441C57.4422 10.441 58.4383 10.7276 59.2961 11.305C60.1519 11.865 60.8147 12.6696 61.2871 13.711L61.3762 13.9063C61.8067 14.8927 62.0195 16.0386 62.0195 17.3396C62.0194 17.4316 61.9448 17.5063 61.8528 17.5063H52.829C52.8846 18.1069 53.0377 18.6368 53.2863 19.0986C53.6069 19.6939 54.0393 20.1481 54.5838 20.4659C55.1286 20.7679 55.7517 20.9208 56.4577 20.9209C57.2272 20.9209 57.852 20.7441 58.3429 20.4022C58.863 20.035 59.2671 19.5775 59.557 19.0284L59.5749 19.0012C59.622 18.943 59.7039 18.9223 59.7743 18.9549L61.7319 19.8621C61.773 19.8812 61.8045 19.9162 61.8193 19.9591C61.834 20.0019 61.8307 20.0489 61.81 20.0893C61.483 20.7269 61.0575 21.2915 60.5343 21.782L60.5325 21.7838C60.0059 22.261 59.3819 22.6298 58.6631 22.8912L58.6628 22.8909C57.9573 23.1533 57.1657 23.2832 56.2905 23.2832C55.1028 23.2831 54.0465 23.0145 53.1266 22.4725L53.1248 22.4713C52.2077 21.9145 51.487 21.1525 50.964 20.1883C50.4397 19.2216 50.1798 18.1111 50.1798 16.8621C50.1799 15.6131 50.4397 14.5029 50.964 13.5361C51.487 12.5718 52.208 11.8174 53.1257 11.2764C54.0612 10.7184 55.1258 10.4411 56.3145 10.441ZM56.2668 12.732C55.7212 12.732 55.1896 12.8604 54.6703 13.12L54.6685 13.1209C54.17 13.3626 53.7541 13.7173 53.4198 14.1878C53.1912 14.5257 53.0444 14.9228 52.9822 15.3826H59.2445C59.195 14.97 59.0852 14.606 58.9167 14.2885L58.8667 14.1985C58.5945 13.7147 58.2348 13.3566 57.7877 13.1181C57.7865 13.1175 57.7852 13.1167 57.784 13.116C57.3335 12.8607 56.829 12.732 56.2668 12.732Z" fill="black"/>
<path fill-rule="evenodd" clip-rule="evenodd" d="M68.5089 10.441C69.6601 10.4411 70.6306 10.668 71.411 11.1329C72.19 11.597 72.7692 12.2686 73.1484 13.1409C73.5432 14.0128 73.7285 15.0812 73.7124 16.339L73.6887 22.8307C73.6883 22.9225 73.6137 22.9967 73.522 22.9967H71.4212C71.3322 22.9967 71.2589 22.9266 71.2548 22.8377L71.2066 21.7936C71.2036 21.7978 71.2006 21.802 71.1976 21.8062C70.4749 22.7977 69.3686 23.2831 67.9121 23.2832C66.4724 23.2832 65.3246 22.9598 64.4896 22.2918C64.4887 22.2911 64.4877 22.2903 64.4868 22.2895C63.6641 21.6011 63.2575 20.6522 63.2575 19.4641C63.2575 18.1983 63.6791 17.2144 64.5387 16.5401C65.4052 15.857 66.5922 15.5258 68.0792 15.5258H71.0974C71.0474 15.1252 70.9674 14.7697 70.8581 14.4587C70.8577 14.4574 70.8572 14.456 70.8567 14.4547C70.6743 13.8922 70.3899 13.4788 70.01 13.2011L70.0075 13.1993C69.647 12.9253 69.1531 12.7796 68.5089 12.7796C67.9113 12.7796 67.3989 12.9021 66.9661 13.1409L66.9659 13.1407C66.5525 13.3775 66.1991 13.7507 65.909 14.2699C65.8686 14.342 65.7814 14.3737 65.7041 14.3443L63.6989 13.5803C63.6544 13.5633 63.6193 13.528 63.6025 13.4834C63.5857 13.4387 63.5888 13.3889 63.6111 13.3467C63.9056 12.7904 64.2743 12.2986 64.717 11.8722C65.1631 11.4268 65.6987 11.0814 66.3214 10.8353C66.9504 10.5708 67.6809 10.441 68.5089 10.441ZM68.6997 17.6495C67.6091 17.6495 66.8863 17.8255 66.4872 18.1392C66.4862 18.1399 66.4851 18.1405 66.4841 18.1412C66.0845 18.441 65.8825 18.859 65.8825 19.4164C65.8825 19.9246 66.0677 20.3112 66.4358 20.5954C66.8276 20.8697 67.3774 21.0164 68.1029 21.0164C68.7316 21.0164 69.2667 20.886 69.7145 20.6326C70.1638 20.3624 70.5164 19.9881 70.7728 19.5055C71.029 19.0233 71.159 18.4697 71.159 17.8409V17.6495H68.6997Z" fill="black"/>
<path d="M99.7576 7.0035C99.8496 7.00354 99.9243 7.07818 99.9243 7.17019V10.7275H103.147C103.239 10.7275 103.314 10.8021 103.314 10.8942V12.8517C103.314 12.9437 103.239 13.0184 103.147 13.0184H99.9243V19.2256C99.9244 19.7864 100.06 20.1935 100.308 20.4712C100.571 20.7318 100.952 20.8732 101.476 20.8732C101.614 20.8732 101.771 20.8457 101.949 20.7862C102.118 20.73 102.333 20.6129 102.598 20.4261C102.638 20.3979 102.688 20.3888 102.735 20.401C102.783 20.4132 102.822 20.4454 102.844 20.4894L103.703 22.256C103.74 22.3315 103.715 22.4224 103.644 22.4683C103.221 22.7449 102.811 22.951 102.412 23.0837L102.412 23.0834C102.029 23.2163 101.638 23.2832 101.238 23.2832C100.017 23.2832 99.0479 22.9735 98.3553 22.3316L98.3537 22.3302C97.6596 21.67 97.3231 20.738 97.323 19.5596V13.0184H95.4606C95.3686 13.0184 95.2939 12.9437 95.2939 12.8517V10.8942C95.2939 10.8022 95.3686 10.7275 95.4606 10.7275H97.323V7.17019C97.323 7.07816 97.3977 7.00351 97.4897 7.0035H99.7576Z" fill="black"/>
<path fill-rule="evenodd" clip-rule="evenodd" d="M118.053 10.441C119.205 10.441 120.175 10.668 120.956 11.1329C121.735 11.5974 122.315 12.2698 122.694 13.1432C123.088 14.0148 123.273 15.0823 123.257 16.339L123.233 22.8307C123.233 22.9225 123.158 22.9967 123.067 22.9967H120.966C120.877 22.9967 120.803 22.9266 120.799 22.8377L120.751 21.7936C120.748 21.7978 120.745 21.802 120.742 21.8062L120.742 21.8064C120.02 22.7979 118.913 23.2832 117.457 23.2832C116.017 23.2831 114.869 22.9597 114.034 22.2918C114.033 22.2911 114.033 22.2903 114.032 22.2895C113.209 21.6011 112.802 20.6522 112.802 19.4641C112.802 18.1985 113.224 17.2146 114.083 16.5403L114.165 16.4773C115.024 15.8368 116.183 15.5258 117.624 15.5258H120.642C120.592 15.1252 120.512 14.7697 120.403 14.4587C120.402 14.4574 120.402 14.456 120.402 14.4547C120.219 13.8922 119.935 13.4788 119.555 13.2011L119.552 13.1993C119.192 12.9253 118.698 12.7796 118.053 12.7796C117.456 12.7796 116.943 12.9021 116.511 13.1409C116.097 13.3777 115.744 13.7507 115.454 14.2699C115.413 14.342 115.326 14.3737 115.249 14.3443L113.244 13.5803C113.199 13.5633 113.164 13.528 113.147 13.4834C113.13 13.4387 113.133 13.3889 113.156 13.3467C113.45 12.7904 113.819 12.2986 114.262 11.8722C114.708 11.4267 115.243 11.0814 115.866 10.8353C116.495 10.5709 117.226 10.4411 118.053 10.441ZM118.245 17.6495C117.154 17.6495 116.431 17.8255 116.032 18.1392C116.031 18.1399 116.03 18.1405 116.029 18.1412C115.629 18.441 115.427 18.8589 115.427 19.4164C115.427 19.9241 115.612 20.3103 115.979 20.5944C116.371 20.8693 116.921 21.0164 117.648 21.0164C118.276 21.0164 118.811 20.8862 119.259 20.6328C119.708 20.3626 120.061 19.9881 120.317 19.5055C120.558 19.0535 120.687 18.5387 120.702 17.958L120.704 17.8409V17.6495H118.245Z" fill="black"/>
<path d="M131.102 10.441C132.291 10.441 133.362 10.7181 134.313 11.275C135.282 11.8336 136.006 12.6319 136.482 13.6652C136.501 13.7062 136.502 13.7533 136.486 13.7954C136.469 13.8375 136.436 13.8711 136.395 13.8886L134.342 14.7481C134.261 14.7816 134.169 14.7478 134.129 14.6704C133.841 14.11 133.426 13.6719 132.88 13.3536L132.879 13.3527C132.351 13.036 131.737 12.8752 131.031 12.8752C130.343 12.8752 129.738 13.0429 129.21 13.3748C128.681 13.7074 128.263 14.1767 127.957 14.7883L127.956 14.7897C127.652 15.3833 127.497 16.0726 127.497 16.8621C127.497 17.6516 127.652 18.341 127.956 18.9345C128.261 19.5286 128.686 19.999 129.232 20.3485C129.777 20.6815 130.391 20.8492 131.078 20.8492C131.737 20.8492 132.324 20.6953 132.844 20.3896L132.946 20.3264C133.491 19.9623 133.9 19.478 134.173 18.8706C134.21 18.789 134.305 18.7509 134.387 18.7843L136.464 19.6199C136.506 19.6367 136.539 19.6699 136.556 19.7117C136.573 19.7534 136.573 19.8004 136.554 19.8417C136.08 20.921 135.358 21.7665 134.391 22.3737C133.439 22.9808 132.357 23.2832 131.15 23.2832C129.931 23.2831 128.844 23.0148 127.893 22.4736L127.891 22.4727C126.942 21.9165 126.197 21.1548 125.657 20.1901L125.656 20.1883C125.132 19.2216 124.872 18.1111 124.872 16.8621C124.872 15.6131 125.132 14.5029 125.656 13.5361L125.657 13.5343C126.197 12.5699 126.934 11.8158 127.868 11.2752C128.819 10.7179 129.899 10.4411 131.102 10.441Z" fill="black"/>
<path fill-rule="evenodd" clip-rule="evenodd" d="M143.707 10.441C144.834 10.4411 145.829 10.7273 146.686 11.3038L146.766 11.357C147.584 11.9145 148.221 12.7016 148.679 13.711C149.169 14.7406 149.411 15.9518 149.411 17.3396C149.411 17.4316 149.337 17.5063 149.245 17.5063H140.221C140.277 18.1069 140.43 18.6368 140.678 19.0986C140.999 19.6939 141.431 20.1481 141.976 20.4659C142.521 20.7679 143.144 20.9209 143.85 20.9209C144.62 20.9208 145.245 20.7439 145.736 20.4017C146.256 20.0347 146.659 19.5773 146.949 19.0284L146.967 19.0012C147.014 18.9429 147.096 18.9223 147.167 18.9549L149.124 19.8621C149.165 19.8812 149.197 19.9162 149.212 19.9591C149.226 20.0019 149.223 20.0489 149.202 20.0893C148.875 20.7269 148.45 21.2915 147.927 21.782L147.924 21.7838C147.398 22.261 146.774 22.6298 146.055 22.8912L146.055 22.8909C145.349 23.1533 144.558 23.2832 143.683 23.2832C142.495 23.2832 141.439 23.0145 140.519 22.4725L140.517 22.4713C139.6 21.9145 138.879 21.1525 138.356 20.1883C137.832 19.2216 137.572 18.1111 137.572 16.8621C137.572 15.6131 137.832 14.5029 138.356 13.5361C138.879 12.5718 139.6 11.8172 140.518 11.2761C141.453 10.7182 142.518 10.441 143.707 10.441ZM143.659 12.732C143.113 12.732 142.582 12.8604 142.062 13.12L142.06 13.1209C141.562 13.3626 141.146 13.7173 140.812 14.1878C140.583 14.5257 140.437 14.9228 140.374 15.3826H146.637C146.587 14.97 146.477 14.606 146.309 14.2885L146.259 14.1985C145.987 13.7147 145.627 13.3566 145.18 13.1181C145.179 13.1175 145.177 13.1167 145.176 13.116C144.725 12.8608 144.221 12.732 143.659 12.732Z" fill="black"/>
<path fill-rule="evenodd" clip-rule="evenodd" d="M42.5803 5.95312C43.7419 5.95312 44.744 6.13053 45.5815 6.49156L45.7396 6.56131C46.5178 6.9206 47.128 7.43431 47.5644 8.1034C48.0481 8.82065 48.2853 9.69846 48.2853 10.727C48.2853 11.5187 48.0953 12.2335 47.7122 12.8664L47.712 12.8661C47.3939 13.4007 46.9635 13.8521 46.4233 14.2204C47.1476 14.6134 47.714 15.1207 48.1156 15.7455C48.5811 16.4447 48.8105 17.2729 48.8105 18.2228C48.8105 19.2194 48.5813 20.0868 48.1163 20.8179C47.6679 21.5319 47.0294 22.0781 46.2069 22.4564L46.2043 22.4576C45.3824 22.8192 44.4035 22.9967 43.2727 22.9967H37.2092C37.1172 22.9967 37.0425 22.922 37.0425 22.83V6.11982C37.0425 6.02778 37.1171 5.95312 37.2092 5.95312H42.5803ZM39.6914 20.5389H43.1294C44.0917 20.5389 44.8119 20.3139 45.313 19.8865C45.8294 19.4437 46.0899 18.8551 46.0899 18.1036C46.0899 17.2577 45.7909 16.6258 45.2018 16.1839C45.2006 16.183 45.1993 16.1819 45.1981 16.1809C44.6172 15.7192 43.7838 15.4772 42.6759 15.4772H39.6914V20.5389ZM39.6914 13.1386H42.9623C43.7913 13.1386 44.4228 12.9167 44.8775 12.4914L44.8794 12.4895C45.3474 12.0653 45.5887 11.4771 45.5887 10.7033C45.5887 9.90186 45.319 9.30974 44.7936 8.90106L44.7913 8.89943C44.2579 8.46983 43.4963 8.24405 42.4848 8.24405H39.6914V13.1386Z" fill="black"/>
<path d="M89.6735 10.441C91.0661 10.441 92.1737 10.9018 92.9741 11.835L93.0481 11.9227C93.7995 12.8423 94.1524 14.2127 94.137 16.0028L94.1373 22.83C94.1372 22.922 94.0626 22.9967 93.9706 22.9967H91.7266C91.6346 22.9967 91.56 22.922 91.5599 22.83V16.7189C91.5599 15.6444 91.4408 14.8516 91.2154 14.3257C91.2147 14.324 91.2137 14.3223 91.2131 14.3206C90.9987 13.7693 90.7162 13.4081 90.3775 13.2104C90.0242 13.0044 89.6082 12.891 89.1246 12.8752L89.0463 12.8761C88.2435 12.8954 87.6285 13.2142 87.1829 13.8323C86.7333 14.478 86.4982 15.4017 86.4982 16.6233V22.83C86.4982 22.922 86.4235 22.9967 86.3315 22.9967H84.0636C83.9716 22.9967 83.897 22.922 83.8969 22.83V16.7189C83.8969 15.6437 83.7856 14.8493 83.5747 14.322L83.5742 14.3206C83.3606 13.7711 83.071 13.4101 82.7171 13.2118L82.7145 13.2104C82.3612 13.0043 81.9452 12.8908 81.4616 12.875C80.6214 12.875 79.9812 13.1934 79.5213 13.83L79.5215 13.8302C79.071 14.476 78.8352 15.4004 78.8352 16.6233V22.83C78.8352 22.922 78.7606 22.9967 78.6685 22.9967H76.4009C76.3088 22.9967 76.2342 22.922 76.2342 22.83V10.8942C76.2342 10.8021 76.3088 10.7275 76.4009 10.7275H78.5253C78.6136 10.7275 78.6867 10.7965 78.6918 10.8846L78.7585 12.0382C79.1001 11.5834 79.5034 11.2245 79.9693 10.9651L80.083 10.9014C80.6573 10.5932 81.3092 10.4411 82.0345 10.441C83.0147 10.441 83.8592 10.67 84.5593 11.136C85.1643 11.5249 85.6223 12.091 85.9375 12.8243C86.2826 12.1196 86.7387 11.564 87.3091 11.1643C87.9771 10.6804 88.7678 10.4411 89.6735 10.441Z" fill="black"/>
<path d="M112.047 10.6798C112.139 10.6799 112.213 10.7545 112.213 10.8465V12.9949C112.213 13.0869 112.139 13.1616 112.047 13.1616C111.348 13.1616 110.682 13.2702 110.048 13.4869L110.045 13.4876C109.437 13.6851 108.939 14.0177 108.546 14.4859L108.546 14.4861C108.18 14.9249 107.988 15.5354 107.988 16.3369V22.83C107.988 22.922 107.913 22.9967 107.821 22.9967H105.553C105.461 22.9967 105.387 22.922 105.387 22.83V10.8942C105.387 10.8022 105.461 10.7275 105.553 10.7275H107.821C107.913 10.7275 107.988 10.8021 107.988 10.8942V12.5311C108.417 12.0078 108.924 11.5946 109.512 11.2947C110.315 10.8852 111.16 10.6798 112.047 10.6798Z" fill="black"/>
<path d="M85.4785 29.6458V28.8467H90.2405V29.6458H88.3207V34.9997H87.3953V29.6458H85.4785Z" fill="black"/>
<path d="M79.5029 34.9997V28.8467H80.4313V31.5206H83.4988V28.8467H84.4301V34.9997H83.4988V32.3168H80.4313V34.9997H79.5029Z" fill="black"/>
<path d="M77.3301 30.7907C77.2721 30.6084 77.1939 30.4452 77.0958 30.3009C76.9997 30.1547 76.8845 30.0305 76.7503 29.9284C76.6161 29.8242 76.4629 29.7451 76.2906 29.6911C76.1204 29.637 75.9331 29.6099 75.7288 29.6099C75.3823 29.6099 75.0698 29.6991 74.7914 29.8773C74.513 30.0556 74.2927 30.317 74.1305 30.6615C73.9702 31.004 73.8901 31.4236 73.8901 31.9203C73.8901 32.419 73.9712 32.8407 74.1335 33.1852C74.2957 33.5297 74.518 33.791 74.8004 33.9693C75.0829 34.1476 75.4043 34.2367 75.7649 34.2367C76.0994 34.2367 76.3908 34.1686 76.6391 34.0324C76.8895 33.8962 77.0828 33.7039 77.219 33.4556C77.3572 33.2052 77.4263 32.9108 77.4263 32.5723L77.6666 32.6173H75.9061V31.8512H78.3246V32.5512C78.3246 33.068 78.2144 33.5166 77.9941 33.8972C77.7758 34.2758 77.4734 34.5682 77.0868 34.7745C76.7022 34.9808 76.2616 35.0839 75.7649 35.0839C75.208 35.0839 74.7193 34.9557 74.2987 34.6994C73.8801 34.443 73.5536 34.0795 73.3193 33.6088C73.0849 33.1361 72.9678 32.5753 72.9678 31.9263C72.9678 31.4356 73.0359 30.995 73.1721 30.6044C73.3083 30.2138 73.4996 29.8823 73.7459 29.6099C73.9943 29.3355 74.2857 29.1262 74.6202 28.982C74.9567 28.8358 75.3242 28.7627 75.7228 28.7627C76.0553 28.7627 76.3647 28.8118 76.6512 28.9099C76.9396 29.0081 77.196 29.1473 77.4203 29.3275C77.6466 29.5078 77.8339 29.7221 77.9821 29.9705C78.1303 30.2168 78.2305 30.4902 78.2825 30.7907H77.3301Z" fill="black"/>
<path d="M71.8141 28.8467V34.9997H70.8857V28.8467H71.8141Z" fill="black"/>
<path d="M68.797 30.4632C68.765 30.1788 68.6328 29.9584 68.4004 29.8022C68.1681 29.644 67.8757 29.5649 67.5232 29.5649C67.2708 29.5649 67.0525 29.6049 66.8682 29.685C66.6839 29.7632 66.5407 29.8713 66.4386 30.0095C66.3384 30.1457 66.2883 30.3009 66.2883 30.4752C66.2883 30.6214 66.3224 30.7476 66.3905 30.8538C66.4606 30.9599 66.5517 31.049 66.6639 31.1211C66.7781 31.1912 66.9002 31.2503 67.0304 31.2984C67.1606 31.3445 67.2858 31.3825 67.406 31.4126L68.0069 31.5688C68.2031 31.6169 68.4044 31.682 68.6107 31.7641C68.817 31.8462 69.0083 31.9544 69.1846 32.0886C69.3608 32.2228 69.503 32.389 69.6112 32.5873C69.7214 32.7856 69.7764 33.0229 69.7764 33.2993C69.7764 33.6478 69.6863 33.9573 69.5061 34.2277C69.3278 34.4981 69.0684 34.7114 68.7279 34.8676C68.3894 35.0238 67.9798 35.102 67.4991 35.102C67.0384 35.102 66.6399 35.0289 66.3034 34.8826C65.9669 34.7364 65.7035 34.5291 65.5132 34.2607C65.3229 33.9903 65.2178 33.6699 65.1978 33.2993H66.1291C66.1471 33.5217 66.2192 33.7069 66.3454 33.8551C66.4736 34.0014 66.6369 34.1105 66.8351 34.1826C67.0354 34.2527 67.2548 34.2878 67.4931 34.2878C67.7555 34.2878 67.9888 34.2467 68.1931 34.1646C68.3994 34.0805 68.5617 33.9643 68.6798 33.8161C68.798 33.6659 68.8571 33.4906 68.8571 33.2903C68.8571 33.108 68.805 32.9588 68.7009 32.8427C68.5987 32.7265 68.4595 32.6303 68.2833 32.5542C68.109 32.4781 67.9117 32.411 67.6914 32.3529L66.9643 32.1547C66.4716 32.0205 66.081 31.8232 65.7926 31.5628C65.5062 31.3024 65.363 30.9579 65.363 30.5293C65.363 30.1748 65.4591 29.8653 65.6514 29.6009C65.8437 29.3365 66.1041 29.1312 66.4326 28.985C66.761 28.8368 67.1316 28.7627 67.5442 28.7627C67.9608 28.7627 68.3283 28.8358 68.6468 28.982C68.9673 29.1282 69.2196 29.3295 69.4039 29.5859C69.5882 29.8403 69.6843 30.1327 69.6923 30.4632H68.797Z" fill="black"/>
<path d="M60.4839 34.9997V28.8467H64.2995V29.6458H61.4122V31.5206H64.0261V32.3168H61.4122V34.9997H60.4839Z" fill="black"/>
<path d="M55.708 34.9997V28.8467H56.6364V34.2005H59.4244V34.9997H55.708Z" fill="black"/>
<path d="M50.6104 34.9997V28.8467H54.468V29.6458H51.5387V31.5206H54.2667V32.3168H51.5387V34.2005H54.504V34.9997H50.6104Z" fill="black"/>
<path d="M42.105 28.8467H43.1595L44.7669 31.6438H44.833L46.4403 28.8467H47.4949L45.2626 32.5841V34.9997H44.3372V32.5841L42.105 28.8467Z" fill="black"/>
<path d="M37.0439 34.9997V28.8467H39.2972C39.7339 28.8467 40.0954 28.9188 40.3818 29.063C40.6682 29.2052 40.8826 29.3985 41.0248 29.6428C41.167 29.8852 41.2381 30.1586 41.2381 30.463C41.2381 30.7194 41.191 30.9357 41.0969 31.112C41.0027 31.2862 40.8765 31.4265 40.7183 31.5326C40.5621 31.6368 40.3898 31.7129 40.2016 31.7609V31.821C40.4059 31.831 40.6052 31.8971 40.7994 32.0193C40.9957 32.1395 41.158 32.3107 41.2861 32.5331C41.4143 32.7554 41.4784 33.0258 41.4784 33.3443C41.4784 33.6587 41.4043 33.9411 41.2561 34.1915C41.1099 34.4399 40.8836 34.6371 40.5771 34.7834C40.2707 34.9276 39.8791 34.9997 39.4024 34.9997H37.0439ZM37.9723 34.2035H39.3123C39.7569 34.2035 40.0754 34.1174 40.2677 33.9451C40.4599 33.7729 40.5561 33.5576 40.5561 33.2992C40.5561 33.1049 40.507 32.9266 40.4089 32.7644C40.3107 32.6022 40.1705 32.473 39.9882 32.3768C39.808 32.2807 39.5937 32.2326 39.3453 32.2326H37.9723V34.2035ZM37.9723 31.5086H39.2161C39.4244 31.5086 39.6117 31.4685 39.7779 31.3884C39.9462 31.3083 40.0794 31.1961 40.1775 31.0519C40.2777 30.9057 40.3277 30.7334 40.3277 30.5351C40.3277 30.2808 40.2386 30.0675 40.0604 29.8952C39.8821 29.723 39.6087 29.6368 39.2402 29.6368H37.9723V31.5086Z" fill="black"/>
</svg>
